# xmcd
#
# Track frame offsets:
#	150
#	20316
#	35687
#	52900
#	71104
#	91799
#	109967
#	139025
#	150592
#	166505
#	181321
#	194151
#	204401
#	215892
#	228194
#	237597
#	248129
#	258237
#	271745
#	281618
#	294159
#	304906
#	318102
#	332483
#
# Disc length: 4587 seconds
# Revision: 0
# Processed by: cddbd v1.5.2PL0 Copyright (c) Steve Scherf et al.
# Submitted via: dBpowerAMP V12.0
#
DISCID=5311e918
DTITLE=Dr. Feelgood - Taking No Prisoners (With Gypie 1977-1981)
DYEAR=2013
DGENRE=British R&B
TTITLE0=Java Blue
TTITLE1=Feels Good
TTITLE2=Put Him Out Of Your Mind
TTITLE3=Bend Your Ear
TTITLE4=Hong Kong Money
TTITLE5=Keeka Smeeka
TTITLE6=Shotgun
TTITLE7=Pretty Face
TTITLE8=Riding On The L and N
TTITLE9=Drop Everything And Run
TTITLE10=Jumping From Love To Love
TTITLE11=Going Some Place Else
TTITLE12=Best In The World
TTITLE13=Punch Drunk
TTITLE14=King For A Day
TTITLE15=Violent Love
TTITLE16=No Mo Do Yakamo
TTITLE17=Love Hound
TTITLE18=Who's Winning
TTITLE19=Coming To You
TTITLE20=Drives Me Wild
TTITLE21=Case Of The Shakes
TTITLE22=Waiting For Saturday Night
TTITLE23=Eileen
EXTD=
EXTT0=
EXTT1=
EXTT2=
EXTT3=
EXTT4=
EXTT5=
EXTT6=
EXTT7=
EXTT8=
EXTT9=
EXTT10=
EXTT11=
EXTT12=
EXTT13=
EXTT14=
EXTT15=
EXTT16=
EXTT17=
EXTT18=
EXTT19=
EXTT20=
EXTT21=
EXTT22=
EXTT23=
PLAYORDER=
